<?xml version="1.0" encoding="utf-8"?>
<!-- Generator: Adobe Illustrator 23.1.0, SVG Export Plug-In . SVG Version: 6.00 Build 0)  -->
<svg version="1.1" id="Capa_1" xmlns="http://www.w3.org/2000/svg" xmlns:xlink="http://www.w3.org/1999/xlink" x="0px" y="0px"
	 viewBox="0 0 1200 1200" enable-background="new 0 0 1200 1200" xml:space="preserve">
<g>
	<path fill="#29505C" d="M1149.924,791.032c-0.548-3.942-5.542-38.909-12.146-52.114c-0.966-1.936-2.676-3.396-4.738-4.051
		c-0.888-0.284-20.639-6.55-32.783-9.096c-3.875-3.561-13.585-12.458-20.205-18.25c-8.4-7.351-25.347-9.709-34.869-4.857
		c-2.341,1.195-4.248,2.799-5.653,4.698c-4.552-0.896-11-2.06-18.362-3.107c4.75-33.966,8.576-82.249,7.847-102.662
		c-1.013-28.36-6.966-55.651-43.263-63.326c-78.296-23.312-255.554-42.559-334.574-50.32c0,0,0-37.546,0.001-37.546
		c4.24,4.217,10.555,6.793,16.468,4.908c16.611-5.301,21.665-39.053,22.212-51.613c1.051-24.17,1.033-48.603-11.453-58.579
		c-7.75-6.193-20.995-5.741-27.228,2.328v-19.578h-21.369v78.844h-17.93c-2.431-23.875-5.212-48.198-7.993-66.205
		c5.268-1.041,11.05-3.689,13.191-10.106c3.119-9.351,12.061-19.621,8.148-30.089c-0.304-0.813-0.701-1.569-1.16-2.279
		c0.77-7.775,2.037-25.444-0.496-39.8c-1.853-10.502-9.037-17.793-19.219-19.502c-10.425-1.735-21.216,2.794-25.664,10.797
		c-4.964,8.938-4.293,28.928-3.482,39.819c-160.64-9.559-325.37-11.731-332.8-12.144c-9.306-0.517-15.39,1.09-16.672,4.082
		c-0.471,1.098-11.317,27.096,7.08,44.182c2.352,2.183,6.216,2.195,9.436,2.322c-10.702,69.876-19.839,126.461-18.704,182.767
		c-38.17,12.009-73.052,33.278-101.938,62.703c-9.609,9.789,5.502,24.894,15.246,14.972c0.335-0.34,0.688-0.655,1.024-0.993
		c4.958,3.608,13.855,9.815,22.367,14.433c-1.771,1.675-3.527,3.364-5.237,5.101l-2.478-2.438
		c-8.23,8.366-15.786,17.496-22.457,27.14l2.858,1.977c-7.646,11.039-14.236,22.861-19.573,35.348l-3.145-1.339
		c-4.607,10.813-8.293,22.095-10.955,33.528l3.343,0.778c-3.019,12.921-4.78,26.311-5.16,40.048l-3.413-0.096
		c-0.175,12.507,0.633,25.47,2.035,35.153l3.355-0.485c0.734,5.055,1.68,10.039,2.785,14.965l-15.006,2.16
		c-4.348,0.626-7.372,4.704-6.793,9.056c2.157,16.187-18.514,9.605-13.536,2.32c5.808-8.5-7.29-17.686-13.205-9.081
		c-4.253,6.19-4.855,14.577-1.529,21.365c6.629,13.529,28.278,15.872,38.28,4.919c3.855-4.223,5.358-9.42,5.876-13.695l10.025-1.443
		c0.906,2.911,1.892,5.788,2.926,8.64l-3.203,1.158c3.982,11.024,8.963,21.781,14.804,31.976l3.019-1.729
		c6.74,11.738,14.62,22.731,23.509,32.83l-2.623,2.307c7.744,8.804,16.305,16.995,25.445,24.348l2.185-2.716
		c10.474,8.432,21.811,15.818,33.852,22.036l-1.592,3.089c10.445,5.381,21.424,9.879,32.631,13.369l1.007-3.233
		c12.711,3.969,25.962,6.699,39.61,8.062l-0.333,3.351c6.741,0.67,24.137,1.967,35.192,0.485l-0.245-3.41
		c13.69-0.984,26.997-3.343,39.797-6.947l0.929,3.309c11.302-3.172,22.398-7.359,32.984-12.44l-1.478-3.078
		c12.219-5.882,23.737-12.985,34.436-21.116l2.096,2.762c9.336-7.087,18.123-15.036,26.118-23.628L444.827,884
		c9.17-9.853,17.385-20.604,24.448-32.143l2.932,1.791c6.128-10.027,11.411-20.647,15.707-31.566l-3.214-1.264
		c3.04-7.706,5.66-15.619,7.738-23.754l25.812,0.421c-0.136,24.523-0.534,44.751-0.543,45.155c-0.087,4.454,3.576,8.177,8.012,8.177
		h76.516c4.425,0,8.013-3.587,8.013-8.013v-43.818l71.475,1.165c0.043,0,0.087,0,0.13,0c4.393,0,8.014-3.621,8.014-8.014
		c0,0,0-5.428,0.001-5.428c19.444,0,38.889,0,58.333,0c-2.68,12.164-4.135,24.781-4.135,37.739c0,8.179,9.196,13.32,16.161,9.132
		c4.941,6.178,12.185,12.753,22.744,17.553c0.149,0.067,0.305,0.093,0.455,0.151c0.755,3.846,1.612,7.669,2.691,11.434l3.542-1.015
		c3.887,13.516,9.806,26.177,17.449,37.605l-3.073,2.051c6.782,10.155,14.883,19.387,24.078,27.44l2.454-2.802
		c10.383,9.096,22.156,16.632,34.971,22.232l-1.474,3.383c11.219,4.888,23.048,8.261,35.157,10.03l0.528-3.613
		c13.69,2.007,27.759,1.893,41.412-0.328l0.585,3.61c12.079-1.956,23.85-5.517,34.989-10.578l-1.531-3.37
		c12.714-5.794,24.391-13.476,34.634-22.731l2.478,2.744c9.075-8.196,17.034-17.553,23.654-27.805l-3.122-2.017
		c7.462-11.539,13.216-24.272,16.894-37.859l3.545,0.957c3.171-11.749,4.778-23.926,4.778-36.199h-3.627
		c0-6.476-0.486-12.839-1.372-19.075c3.13,0.025,6.802,0.045,10.861,0.045c27.09,0,71.099-0.845,81.64-6.115
		C1148.644,797.765,1150.396,794.439,1149.924,791.032z M629.809,485.895c-4.337-0.406-7.985-0.741-10.819-0.999
		c-0.925-11.379-2.943-35.478-5.521-62.157h16.34V485.895z"/>
	<path fill="#52656B" d="M533.357,728.286h60.864v-38.774h-64.057C531.526,701.509,532.675,714.584,533.357,728.286z"/>
	<path fill="#52656B" d="M534.32,781.715l59.902,0.978v-38.38h-60.285C534.217,755.796,534.319,768.89,534.32,781.715z"/>
	<path fill="#52656B" d="M533.874,834.788h60.348v-36.065l-59.947-0.978C534.19,813.009,534.005,826.588,533.874,834.788z"/>
	<path fill="#F2645C" d="M523,302.599c-27.729-1.416-53.919-2.755-69.257-3.968c-34.573-2.729-182.88-5.501-214.749-6.073
		c-1.116,5.087-1.77,13.079,2.867,19.126l352.337,10.241c2.6,0.076,5.329,3.423,7.445,2.644c1.646-0.606,6.79-13.412,7.839-16.62
		C596.344,306.347,554.502,304.208,523,302.599z"/>
	<path fill="#52656B" d="M508.097,649.573c-3.537-0.316-6.841-2.363-8.577-5.758c-38.877-76.042-116.038-123.278-201.372-123.278
		c-55.197,0-107.197,19.638-148.319,55.543c6.825,4.824,16.615,11.263,23.536,14.207c4.107-3.265,8.314-6.411,12.673-9.351
		l-1.921-2.851c9.738-6.558,20.102-12.307,30.807-17.086l1.411,3.162c12.204-5.459,25.04-9.735,38.378-12.679l-0.735-3.341
		c11.429-2.512,23.181-4.048,34.929-4.562l0.149,3.38c2.961-0.13,5.932-0.226,8.925-0.226c10.678,0,21.158,0.858,31.39,2.472
		l0.525-3.341c11.603,1.823,23.116,4.677,34.215,8.475l-1.116,3.263c12.872,4.422,25.156,10.102,36.703,16.92l1.761-2.987
		c10.087,5.948,19.74,12.824,28.69,20.435l-2.262,2.661c10.268,8.743,19.635,18.5,27.969,29.116l2.751-2.159
		c7.249,9.242,13.733,19.163,19.272,29.49l-3.028,1.625c6.343,11.797,11.517,24.305,15.419,37.36l3.279-0.978
		c3.348,11.24,5.734,22.856,7.089,34.53l-3.383,0.393c0.897,7.685,1.41,15.485,1.41,23.407h3.351
		c0,11.309-0.959,22.644-2.803,33.728l19.083,0.312c-0.004-15.365-0.15-31.09-0.583-43.851
		C516.52,702.443,511.788,670.172,508.097,649.573z"/>
	<path fill="#52656B" d="M528.149,673.485h66.072v-47.048h-74.345C521.469,633.637,525.009,650.731,528.149,673.485z"/>
	<path fill="#92A6AD" d="M417.924,332.836V529.5c0,0.14-0.034,0.27-0.04,0.408c34.618,19.114,64.525,46.521,86.865,80.502h12.535
		l-25.141-43.422c-3.589-6.203,5.959-11.032,9.248-5.353c0.067,0.115,28.239,48.775,28.239,48.775h18.786l-32.126-71.089H473.33
		c-6.926,0-6.866-10.685,0.002-10.685c0.28,0,38.129,0,38.129,0l-8.489-18.784c0,0,4.652-2.873,4.613-2.935l-11.821-18.578
		l-20.537,11.735c-8.955,5.125-16.618-8.961-7.948-13.916c0.486-0.277,57.567-32.895,57.567-32.895
		c9.057-5.183,16.695,8.918,7.951,13.915c-0.126,0.072-23.102,13.2-23.102,13.2l11.412,17.935c0.153,0.239,6.681-2.938,6.681-2.938
		l16.544-20.679l24.816,13.442l-7.238,18.612h13.548c-0.968-62.76-9.085-119.641-11.557-135.628H441.448v144.243
		c0,7.151-10.685,6.576-10.685,0c0-0.162,0-149.586,0-149.586c0-2.95,2.392-5.342,5.342-5.342h132.352
		c2.605,0,4.83,1.878,5.267,4.448c0.115,0.678,11.277,67.175,12.415,141.865h5.127l10.19-39.061
		c-3.006-34.873-8.779-97.212-14.241-129.933L417.924,332.836z"/>
	<path fill="#EBCD57" d="M673.848,403.004c-0.112-10.853,1.724-39.639-5.447-45.368c-10.44-8.34-11.461,34.47-11.575,38.858
		c-0.628,24.019,2.604,38.708,4.473,41.233C665.253,443.068,674.099,427.132,673.848,403.004z"/>
	<path fill="#EBCD57" d="M608.514,291.77c0.597-8.089,1.187-21.557-0.591-31.63c-1.075-6.098-11.891-8.583-15.51-2.068
		c-2.213,3.985-2.164,18.973-1.051,32.287C598.699,290.861,604.304,291.32,608.514,291.77z"/>
	<path fill="#52656B" d="M477.294,747.414c0-7.088-0.459-14.067-1.263-20.942l-12.54,1.456c-1.106-9.524-3.052-19.001-5.782-28.165
		l12.083-3.601c-3.484-11.658-8.105-22.828-13.768-33.364l-11.099,5.953c-4.523-8.431-9.82-16.533-15.743-24.085l9.871-7.743
		c-7.449-9.489-15.823-18.212-25.002-26.028l-8.128,9.558c-7.321-6.224-15.213-11.846-23.458-16.705l6.384-10.827
		c-10.31-6.088-21.28-11.16-32.773-15.108l-4.076,11.907c-9.054-3.102-18.445-5.426-27.913-6.915l1.964-12.492
		c-9.149-1.445-18.52-2.213-28.069-2.213c-2.68,0-5.34,0.086-7.991,0.203l0.553,12.634c-9.601,0.42-19.2,1.675-28.533,3.728
		l-2.708-12.316c-11.907,2.629-23.366,6.446-34.26,11.319l5.124,11.482c-8.74,3.9-17.205,8.595-25.157,13.951l-7.037-10.447
		c-10.017,6.755-19.3,14.512-27.746,23.096l8.955,8.814c-6.727,6.834-12.903,14.3-18.356,22.183l-10.333-7.148
		c-6.829,9.861-12.713,20.421-17.48,31.574l11.603,4.944c-3.759,8.82-6.765,18.02-8.936,27.346l-12.272-2.856
		c-2.7,11.551-4.275,23.522-4.614,35.803l12.613,0.354c0.358,7.667,0.519,20.832,1.664,28.752l-12.508,1.809
		c1.759,12.098,4.718,23.81,8.774,35.006l11.87-4.289c3.249,8.992,7.313,17.772,12.08,26.094l-10.896,6.242
		c6.023,10.492,13.066,20.318,21.01,29.344l9.421-8.287c6.331,7.197,13.332,13.896,20.807,19.909l-7.869,9.783
		c9.359,7.532,19.489,14.132,30.249,19.688l5.753-11.166c8.522,4.39,17.479,8.06,26.62,10.906l-3.758,12.069
		c11.351,3.544,23.184,5.984,35.371,7.203l1.252-12.599c5.516,0.548,24.814,0.686,28.814,0.397l0.904,12.584
		c12.23-0.88,24.118-2.988,35.552-6.208l-3.404-12.125c9.217-2.588,18.27-6.002,26.906-10.15l5.46,11.373
		c10.918-5.254,21.211-11.6,30.769-18.865l-7.601-10.012c7.63-5.794,14.814-12.292,21.35-19.319l9.193,8.553
		c8.198-8.808,15.541-18.419,21.852-28.734l-10.749-6.567c5.001-8.186,9.313-16.851,12.817-25.76l11.706,4.605
		c4.374-11.086,7.669-22.704,9.765-34.736l-12.423-2.153c1.63-9.409,2.457-19.063,2.457-28.694H477.294z M297.981,873.045
		c-69.273,0-125.631-56.358-125.631-125.631s56.358-125.631,125.631-125.631s125.631,56.358,125.631,125.631
		S367.254,873.045,297.981,873.045z"/>
	<path fill="#92A6AD" d="M274.398,500.294c0.513-20.438,3.097-93.728,14.514-140.601c0.583-2.392,2.727-4.077,5.191-4.077h107.794
		V332.37l-143.355-4.167c-4.314,21.362-21.046,109.169-19.523,178.037C250.58,503.422,262.394,501.426,274.398,500.294z"/>
	<path fill="#92A6AD" d="M352.011,432.425c1.041,7.426,1.045,14.704,4.321,21.591c4.898,10.299,19.457,32.054,25.231,59.505
		c6.916,2.463,13.692,5.254,20.334,8.312V366.3H298.34c-10.044,44.642-12.644,112.408-13.222,133.207
		c4.324-0.222,8.667-0.34,13.03-0.34c17.003,0,33.703,1.733,49.914,5.038c-3.184-5.963-5.966-12.148-8.448-18.435
		c-6.323-16.015-10.267-32.805-12.657-49.833C324.682,419.727,349.752,416.301,352.011,432.425z"/>
	<path fill="#92A6AD" d="M297.981,637.81c-60.437,0-109.604,49.169-109.604,109.604s49.168,109.604,109.604,109.604
		s109.604-49.169,109.604-109.604S358.418,637.81,297.981,637.81z M297.981,836.252c-48.986,0-88.839-39.851-88.839-88.837
		c0-48.986,39.852-88.837,88.839-88.837c48.985,0,88.837,39.851,88.837,88.837C386.818,796.401,346.966,836.252,297.981,836.252z"/>
	<path fill="#52656B" d="M297.981,669.262c-43.095,0-78.154,35.059-78.154,78.153c0,43.094,35.059,78.153,78.154,78.153
		c43.094,0,78.153-35.059,78.153-78.153C376.134,704.321,341.075,669.262,297.981,669.262z M297.981,785.415
		c-20.987,0-38-17.013-38-38c0-20.987,17.013-38,38-38s38,17.013,38,38C335.981,768.401,318.968,785.415,297.981,785.415z"/>
	<path fill="#52656B" d="M640.495,669.089c0.274,0,49.025,0,49.025,0c-5.265-10.795-10.117-20.045-13.152-24.294
		c-4.483-6.277-36.176-13.617-66.119-17.387v155.546l63.592,1.038v-5.298c0-4.427,3.588-8.013,8.013-8.013h8.53v-10.771h-49.89
		c-6.926,0-6.866-10.685,0.003-10.685c0.353,0,49.888,0,49.888,0v-16.027h-49.89c-6.982,0-6.821-10.685,0.001-10.685
		c0.18,0,49.889,0,49.889,0v-16.027h-49.89c-6.939,0-6.872-10.685,0.001-10.685c0.265,0,49.889,0,49.889,0v-16.027h-49.89
		C633.597,679.774,633.55,669.089,640.495,669.089z"/>
	<path fill="#52656B" d="M720.113,724.668c-3.194,0-6.083-1.896-7.352-4.828c-1.581-3.647-3.785-8.661-6.349-14.389v65.23h46.123
		c5.344-16.544,13.083-32.013,22.808-46.013H720.113z"/>
	<path fill="#F2645C" d="M831.911,721.742l-2.417-2.834c9.315-7.943,19.631-14.618,30.657-19.838l1.577,3.33
		c12.344-5.858,25.715-9.875,39.759-11.747l-0.484-3.642c6.074-0.809,12.226-1.109,18.422-1.213c6.027,0,12.108,0.394,18.064,1.171
		l-0.475,3.642c14.054,1.838,27.435,5.826,39.794,11.655l1.57-3.336c8.869,4.173,17.247,9.322,25.046,15.274
		c5.113-30.965,10.4-88.919,9.575-112.036c-1.127-31.558-8.91-43.74-30.84-48.277c-0.226-0.047-0.45-0.102-0.672-0.17
		c-29.035-8.681-72.983-16.873-120.578-24.116v21.836c5.329,3.84,16.545,13.815,16.545,29.759c0,13.008-1.102,52.797-1.699,73.403
		c6.183-1.59,12.507-2.817,18.932-3.728V601.88c0-18.599,7.49-32.458,27.936-29.052c18.76,3.126,38.683,10.288,50.108,16.001
		c13.747,6.874,18.469,17.209,17.423,38.132c-1.098,21.964-2.194,34.412-3.121,43.694c-1.187,11.856-9.204,13.238-16.334,13.238
		c-2.532,0-5.06-0.156-7.592-0.156c-6.93,0-6.87-10.685,0.004-10.685c3.927,0.001,12.71,2.336,13.291-3.475
		c0.914-9.147,1.995-21.429,3.081-43.148c1.007-20.133-4.381-24.468-11.53-28.042c-10.362-5.183-29.517-12.093-47.086-15.02
		c-13.713-2.284-15.494,6.688-15.495,18.508c0,0.005,0,47.835,0,47.835c4.639-0.369,9.314-0.612,14.046-0.612
		c13.834,0,13.749,21.369-0.003,21.369c-80.549,0.001-146.806,62.185-153.394,141.063c0.023,0.079,0.065,0.147,0.086,0.228
		c0.181,0.638,3.361,11.28,14.914,19.758c-0.083-1.643-0.211-3.281-0.237-4.928c1.18-0.018,2.354-0.047,3.529,0.017
		c-0.608-10.169,4.269-41.577,5.833-41.106c-0.001,0-3.514-1.057-3.514-1.057c3.52-11.702,8.595-22.908,15.083-33.301l3.144,1.962
		C812.231,741.306,821.373,730.734,831.911,721.742z"/>
	<path fill="#F2645C" d="M689.408,635.478c9.082,12.714,29.32,58.085,35.947,73.163h62.557
		c12.436-14.106,27.095-26.191,43.431-35.724l-97.789-2.794l-13.442-31.02l145.306,3.048c0.597-21.377,1.351-50.448,1.351-60.952
		c0-14.29-13.683-22.149-13.821-22.228c-1.683-0.947-2.723-2.726-2.723-4.656v-26.311c-94.931-14.018-200.781-24.196-230.942-26.98
		c-1.4,36.556-6.369,90.299-8.3,110.317C633.659,614.088,679.264,621.277,689.408,635.478z M811.358,570.238
		c0.068,0.207,15.511,47.562,15.511,47.562c2.144,6.566-8.016,9.878-10.158,3.312c-0.054-0.166-15.51-47.561-15.51-47.561
		C799.058,566.99,809.214,563.666,811.358,570.238z M784.646,570.238c0.078,0.237,15.511,47.562,15.511,47.562
		c2.158,6.607-8.076,9.695-10.158,3.312c-0.053-0.163-15.511-47.561-15.511-47.561C772.341,566.973,782.509,563.686,784.646,570.238
		z M757.934,570.238c0.076,0.234,15.511,47.562,15.511,47.562c2.196,6.726-8.11,9.592-10.158,3.313
		c-0.032-0.099-15.511-47.562-15.511-47.562C745.619,566.941,755.808,563.719,757.934,570.238z M731.222,570.238
		c0.042,0.128,15.511,47.562,15.511,47.562c2.159,6.611-8.062,9.737-10.158,3.312c-0.046-0.14-15.511-47.561-15.511-47.561
		C718.921,566.984,729.081,563.673,731.222,570.238z M703.304,570.238c0.046,0.138,15.511,47.562,15.511,47.562
		c2.163,6.621-8.068,9.719-10.158,3.312c-0.052-0.16-15.51-47.561-15.51-47.561C690.989,566.942,701.218,563.841,703.304,570.238z"
		/>
	<path fill="#52656B" d="M1076.843,769.561c-6.951,0-6.87-10.685,0.001-10.685c0.273,0,50.762,0,50.762,0
		c-0.933-3.745-1.91-7.149-2.903-9.821c-6.708-2.063-21.485-6.487-29.648-7.974c-1.497-0.271-2.885-0.963-4.002-1.996
		c-0.134-0.123-13.461-12.419-21.556-19.502c-3.807-3.331-13.545-4.229-16.699-2.836c-0.067,5.057-4.881,8.805-9.811,7.714
		c-0.163-0.036-10.707-2.442-24.3-4.371c-0.72,4.048-1.446,7.669-2.168,10.682c-0.497,2.073,32.128,12.331,35.557,14.045
		c4.117,2.058,5.488,7.169,3.502,10.918l-8.19,15.47c1.762,4.23,3.383,8.52,4.716,12.909l-3.509,1.066
		c0.417,1.366,0.802,2.746,1.176,4.13c32.164,0.361,68.85-0.686,83.231-2.994c-0.774-4.835-1.814-10.809-3.015-16.755H1076.843z"/>
	<path fill="#52656B" d="M1018.88,794.204c-2.658-8.747-6.476-17.123-11.35-24.894l8.179-5.13
		c-6.232-9.92-13.948-18.811-22.843-26.364l-6.246,7.357c-7-5.94-14.747-10.93-23.027-14.827l4.118-8.75
		c-10.393-4.9-21.643-8.253-33.459-9.801l-1.253,9.607c-4.475-0.584-9.045-0.879-13.583-0.879c-4.62,0.096-9.279,0.303-13.836,0.91
		l-1.277-9.603c-11.809,1.577-23.053,4.955-33.434,9.88l4.14,8.746c-8.263,3.913-15.996,8.916-22.985,14.877l-6.259-7.341
		c-8.878,7.574-16.578,16.48-22.788,26.418l8.195,5.115c-4.857,7.781-8.655,16.168-11.289,24.922l-9.278-2.792
		c-3.137,10.389-4.843,21.394-4.843,32.793c0,0.59,0.036,1.171,0.045,1.759l9.695-0.147c0.14,9.208,1.484,18.32,3.998,27.087
		l-9.301,2.666c3.27,11.369,8.248,22.017,14.674,31.63l8.042-5.37c5.089,7.622,11.17,14.551,18.073,20.595l-6.354,7.258
		c8.739,7.656,18.649,13.998,29.435,18.711l3.861-8.865c8.397,3.655,17.249,6.18,26.311,7.505c0,0-1.403,9.604-1.402,9.604
		c10.114,2.599,28.726,3.116,34.905-0.274c0.003-0.001-1.553-9.578-1.553-9.578c9.036-1.466,17.844-4.129,26.177-7.917l3.999,8.798
		c10.702-4.877,20.531-11.342,29.155-19.131l-6.482-7.176c6.816-6.156,12.791-13.181,17.76-20.876l8.108,5.236
		c6.274-9.705,11.112-20.414,14.206-31.84l-9.351-2.523c2.374-8.799,3.578-17.934,3.578-27.153h9.729
		c0-11.496-1.73-22.592-4.918-33.059L1018.88,794.204z M919.416,897.863c-40.481,0-73.414-32.933-73.414-73.416
		c0-40.48,32.933-73.413,73.414-73.413c40.481,0,73.414,32.933,73.414,73.413C992.831,864.93,959.897,897.863,919.416,897.863z"/>
	<path fill="#92A6AD" d="M919.416,767.062c-31.643,0-57.387,25.744-57.387,57.386c0,31.645,25.744,57.388,57.387,57.388
		c31.643,0,57.387-25.744,57.387-57.388C976.803,792.806,951.06,767.062,919.416,767.062z M919.416,852.625
		c-15.561,0-28.176-12.616-28.176-28.177c0-15.561,12.615-28.176,28.176-28.176s28.177,12.615,28.177,28.176
		C947.593,840.009,934.978,852.625,919.416,852.625z"/>
</g>
</svg>
